<svg xmlns="http://www.w3.org/2000/svg" xmlns:xlink="http://www.w3.org/1999/xlink" width="15" height="15" viewBox="0 0 15 15"><defs><style>.a,.c{fill:#95979b;}.a{stroke:#707070;}.b{clip-path:url(#a);}</style><clipPath id="a"><rect class="a" width="15" height="15" transform="translate(4 907)"/></clipPath></defs><g class="b" transform="translate(-4 -907)"><g transform="translate(4.304 907)"><g transform="translate(0 0)"><path class="c" d="M14.063,7.694a.44.44,0,0,1,0-.389l.559-1.144a1.3,1.3,0,0,0-.562-1.729l-1.125-.6a.44.44,0,0,1-.228-.314l-.22-1.255A1.3,1.3,0,0,0,11.016,1.2l-1.261.178a.44.44,0,0,1-.37-.12L8.47.37a1.3,1.3,0,0,0-1.818,0l-.916.886a.44.44,0,0,1-.37.12L4.105,1.2A1.3,1.3,0,0,0,2.634,2.266l-.22,1.255a.44.44,0,0,1-.228.314l-1.125.6A1.3,1.3,0,0,0,.5,6.161l.559,1.144a.44.44,0,0,1,0,.389L.5,8.839a1.3,1.3,0,0,0,.562,1.729l1.125.6a.44.44,0,0,1,.228.314l.22,1.255a1.3,1.3,0,0,0,1.284,1.082,1.338,1.338,0,0,0,.187-.013l1.261-.178a.439.439,0,0,1,.37.12l.916.886a1.3,1.3,0,0,0,1.818,0l.916-.886a.44.44,0,0,1,.37-.12l1.261.178a1.3,1.3,0,0,0,1.471-1.069l.22-1.255a.44.44,0,0,1,.228-.314l1.125-.6a1.3,1.3,0,0,0,.562-1.729ZM13.655,9.8l-1.125.6a1.3,1.3,0,0,0-.675.929l-.22,1.255a.441.441,0,0,1-.5.362l-1.261-.178a1.3,1.3,0,0,0-1.092.355l-.916.886a.441.441,0,0,1-.615,0l-.916-.886a1.3,1.3,0,0,0-.906-.368,1.328,1.328,0,0,0-.186.013l-1.261.178a.441.441,0,0,1-.5-.362l-.22-1.255a1.3,1.3,0,0,0-.675-.929L1.466,9.8a.441.441,0,0,1-.19-.585l.559-1.144a1.3,1.3,0,0,0,0-1.148L1.276,5.781a.441.441,0,0,1,.19-.585l1.125-.6a1.3,1.3,0,0,0,.675-.929l.22-1.255a.441.441,0,0,1,.5-.362l1.261.178a1.3,1.3,0,0,0,1.092-.355L7.253.992a.441.441,0,0,1,.615,0l.916.886a1.3,1.3,0,0,0,1.092.355l1.261-.178a.441.441,0,0,1,.5.362l.22,1.255a1.3,1.3,0,0,0,.675.929l1.125.6a.441.441,0,0,1,.19.585l-.559,1.144a1.3,1.3,0,0,0,0,1.148l.559,1.144A.441.441,0,0,1,13.655,9.8Z" transform="translate(-0.364 0)"/></g><g transform="translate(3.909 4.213)"><path class="c" d="M11.5,5.182a.433.433,0,0,0-.612,0l-5.71,5.71a.433.433,0,1,0,.612.612l5.71-5.71A.433.433,0,0,0,11.5,5.182Z" transform="translate(-5.055 -5.055)"/></g><g transform="translate(3.88 3.607)"><path class="c" d="M6.606,4.328A1.586,1.586,0,1,0,8.192,5.914,1.588,1.588,0,0,0,6.606,4.328Zm0,2.307a.721.721,0,1,1,.721-.721A.722.722,0,0,1,6.606,6.635Z" transform="translate(-5.02 -4.328)"/></g><g transform="translate(7.341 8.221)"><path class="c" d="M10.759,9.865a1.586,1.586,0,1,0,1.586,1.586A1.588,1.588,0,0,0,10.759,9.865Zm0,2.307a.721.721,0,1,1,.721-.721A.722.722,0,0,1,10.759,12.172Z" transform="translate(-9.173 -9.865)"/></g></g></g></svg>