<svg xmlns="http://www.w3.org/2000/svg" width="204" height="60.909" viewBox="0 0 204 60.909"><defs><style>.a{fill:#2e4765;}.b{fill:#fff;}</style></defs><g transform="translate(-2.536 -2.404)"><path class="a" d="M220.776,71.219a5.968,5.968,0,0,1-5.856,6.094H22.7a6,6,0,0,1-5.889-6.094V22.533A6.026,6.026,0,0,1,22.7,16.4H214.92a6,6,0,0,1,5.889,6.129l-.033,48.686Z" transform="translate(-14.273 -14)"/><path class="b" d="M266.326,138.166a9.763,9.763,0,0,1,4.74-8.217,10.2,10.2,0,0,0-8.036-4.273c-3.37-.365-6.629,2.009-8.369,2.009s-4.407-1.972-7.258-1.9a10.775,10.775,0,0,0-9,5.4c-3.888,6.647-1,16.4,2.74,21.729,1.852,2.629,4.036,5.551,6.888,5.441,2.777-.11,3.814-1.753,7.184-1.753,3.333,0,4.3,1.753,7.221,1.68,3-.037,4.888-2.629,6.666-5.3a21.384,21.384,0,0,0,3.037-6.135A9.522,9.522,0,0,1,266.326,138.166Zm-5.481-16.032a9.558,9.558,0,0,0,2.222-6.9,10.115,10.115,0,0,0-6.443,3.287,9.1,9.1,0,0,0-2.3,6.647A8.254,8.254,0,0,0,260.846,122.134Z" transform="translate(-220.516 -103.828)"/><path class="b" d="M803.084,158.259H799.72l-1.858-5.8h-6.407l-1.762,5.8h-3.268l6.343-19.73h3.94Zm-5.767-8.231-1.666-5.157c-.192-.512-.513-1.762-.993-3.715h-.064c-.192.833-.513,2.082-.929,3.715l-1.634,5.157Zm22.074.929a8.047,8.047,0,0,1-1.986,5.733,5.792,5.792,0,0,1-4.389,1.89,4.407,4.407,0,0,1-4.069-2.018v7.463h-3.14V148.682c0-1.505-.032-3.075-.128-4.676h2.787l.192,2.242h.064a5.619,5.619,0,0,1,9-.577A8.092,8.092,0,0,1,819.391,150.956Zm-3.2.128a6,6,0,0,0-.929-3.427,3.249,3.249,0,0,0-2.755-1.409,3.309,3.309,0,0,0-2.114.769,3.5,3.5,0,0,0-1.25,2.05,5.016,5.016,0,0,0-.16.961v2.37a3.8,3.8,0,0,0,.961,2.626,3.2,3.2,0,0,0,2.467,1.057,3.238,3.238,0,0,0,2.787-1.377,5.913,5.913,0,0,0,.993-3.619Zm19.607-.128a8.047,8.047,0,0,1-1.986,5.733,5.792,5.792,0,0,1-4.389,1.89,4.407,4.407,0,0,1-4.069-2.018v7.463h-3.172V148.682c0-1.505-.032-3.075-.128-4.676h2.787l.192,2.242h.064a5.619,5.619,0,0,1,9-.577A8.108,8.108,0,0,1,835.794,150.956Zm-3.236.128a6,6,0,0,0-.929-3.427,3.249,3.249,0,0,0-2.755-1.409,3.309,3.309,0,0,0-2.115.769,3.5,3.5,0,0,0-1.25,2.05,4.255,4.255,0,0,0-.16.961v2.37a3.8,3.8,0,0,0,.961,2.626,3.2,3.2,0,0,0,2.467,1.057,3.239,3.239,0,0,0,2.787-1.377A5.913,5.913,0,0,0,832.558,151.084Zm21.529,1.633a5.241,5.241,0,0,1-1.762,4.1,7.764,7.764,0,0,1-5.382,1.73,9.712,9.712,0,0,1-5.126-1.217l.737-2.626a8.686,8.686,0,0,0,4.581,1.217,4.31,4.31,0,0,0,2.787-.8,2.6,2.6,0,0,0,.993-2.146,2.755,2.755,0,0,0-.833-2.018,7.712,7.712,0,0,0-2.723-1.537q-5.19-1.922-5.19-5.669A4.937,4.937,0,0,1,844,139.778a7.3,7.3,0,0,1,4.838-1.537,9.8,9.8,0,0,1,4.485.929l-.8,2.562a7.757,7.757,0,0,0-3.78-.9,3.913,3.913,0,0,0-2.627.833,2.4,2.4,0,0,0-.8,1.794,2.352,2.352,0,0,0,.9,1.922,10.232,10.232,0,0,0,2.883,1.537,9.474,9.474,0,0,1,3.748,2.4A4.641,4.641,0,0,1,854.087,152.718Zm10.476-6.31h-3.492v6.918c0,1.762.609,2.626,1.858,2.626a4.493,4.493,0,0,0,1.41-.16l.1,2.4a7.327,7.327,0,0,1-2.467.352,3.742,3.742,0,0,1-2.915-1.153A5.627,5.627,0,0,1,858,153.55v-7.174h-2.082v-2.37H858v-2.594l3.108-.929v3.555H864.6Zm15.7,4.612a7.82,7.82,0,0,1-1.89,5.381,6.722,6.722,0,0,1-5.222,2.178,6.431,6.431,0,0,1-5-2.082,7.526,7.526,0,0,1-1.858-5.253,7.718,7.718,0,0,1,1.922-5.413,6.646,6.646,0,0,1,5.158-2.114,6.5,6.5,0,0,1,5.03,2.082A7.391,7.391,0,0,1,880.262,151.02Zm-3.268.064a6.542,6.542,0,0,0-.833-3.363,3.152,3.152,0,0,0-2.851-1.7,3.214,3.214,0,0,0-2.916,1.7,6.4,6.4,0,0,0-.833,3.427,6.543,6.543,0,0,0,.833,3.363,3.256,3.256,0,0,0,5.735-.032A6.446,6.446,0,0,0,876.994,151.084Zm13.552-4.292a5.216,5.216,0,0,0-.993-.1,2.928,2.928,0,0,0-2.563,1.249,4.81,4.81,0,0,0-.8,2.819v7.463h-3.172V148.49c0-1.505-.032-2.979-.1-4.484h2.755l.128,2.722h.1a4.761,4.761,0,0,1,1.57-2.242,3.966,3.966,0,0,1,2.275-.769,6.242,6.242,0,0,1,.8.064Zm14.161,3.683a7.3,7.3,0,0,1-.128,1.441H895.1a4.076,4.076,0,0,0,1.378,3.235,4.641,4.641,0,0,0,3.108.993,10.531,10.531,0,0,0,3.845-.673l.48,2.178a12.1,12.1,0,0,1-4.774.865,6.812,6.812,0,0,1-5.19-1.954,7.252,7.252,0,0,1-1.89-5.221,8.034,8.034,0,0,1,1.762-5.349,5.984,5.984,0,0,1,4.966-2.274,5.278,5.278,0,0,1,4.645,2.274A7.489,7.489,0,0,1,904.706,150.476Zm-3.012-.833a4.306,4.306,0,0,0-.609-2.434,2.717,2.717,0,0,0-2.531-1.313,3.015,3.015,0,0,0-2.531,1.281,4.8,4.8,0,0,0-.929,2.466Zm-111.138-18.1a15.881,15.881,0,0,1-2.275-.128v-9.545a19.012,19.012,0,0,1,2.691-.192c3.62,0,5.286,1.794,5.286,4.708,0,3.331-1.986,5.157-5.7,5.157Zm.513-8.648a7.079,7.079,0,0,0-1.249.1v7.239a8.494,8.494,0,0,0,1.057.032c2.371,0,3.716-1.345,3.716-3.875C794.594,124.148,793.377,122.9,791.07,122.9Zm10.38,8.712a3.325,3.325,0,0,1-3.364-3.587,3.4,3.4,0,0,1,3.492-3.683,3.292,3.292,0,0,1,3.364,3.587A3.434,3.434,0,0,1,801.45,131.611Zm.064-6.15c-1.121,0-1.858,1.057-1.858,2.53,0,1.441.737,2.5,1.826,2.5s1.826-1.121,1.826-2.53C803.34,126.518,802.6,125.461,801.514,125.461Zm15.09-.993-2.179,6.982h-1.442l-.9-3.043c-.224-.737-.416-1.505-.577-2.274h-.032a13.912,13.912,0,0,1-.577,2.274l-.961,3.043H808.5l-2.05-6.982h1.6l.8,3.331c.192.8.352,1.537.481,2.242h.032c.128-.577.288-1.313.577-2.242l.993-3.331h1.282l.961,3.267q.336,1.2.577,2.306h.032a18.6,18.6,0,0,1,.481-2.306l.865-3.267Zm8.041,6.982h-1.538v-4c0-1.249-.48-1.858-1.41-1.858a1.622,1.622,0,0,0-1.57,1.7v4.164h-1.57v-5c0-.609,0-1.281-.064-1.986h1.378l.064,1.089h.032a2.544,2.544,0,0,1,2.211-1.217c1.474,0,2.435,1.121,2.435,2.947Zm4.293,0h-1.57V121.233h1.57Zm5.671.16a3.325,3.325,0,0,1-3.364-3.587,3.4,3.4,0,0,1,3.492-3.683,3.292,3.292,0,0,1,3.364,3.587A3.434,3.434,0,0,1,834.609,131.611Zm.064-6.15c-1.121,0-1.858,1.057-1.858,2.53,0,1.441.737,2.5,1.826,2.5s1.826-1.121,1.826-2.53C836.467,126.518,835.762,125.461,834.673,125.461Zm9.547,5.989-.128-.8h-.032a2.4,2.4,0,0,1-2.05.961,2.029,2.029,0,0,1-2.146-2.05c0-1.73,1.506-2.626,4.1-2.626v-.128c0-.929-.481-1.377-1.442-1.377a3.206,3.206,0,0,0-1.826.512l-.32-1.025a4.321,4.321,0,0,1,2.4-.609c1.826,0,2.755.961,2.755,2.883v2.562a11.341,11.341,0,0,0,.1,1.666ZM844,127.959c-1.73,0-2.595.416-2.595,1.409a.985.985,0,0,0,1.057,1.089A1.494,1.494,0,0,0,844,129.048Zm9.067,3.491L853,130.33h-.032a2.359,2.359,0,0,1-2.243,1.281c-1.7,0-2.947-1.473-2.947-3.555,0-2.178,1.281-3.715,3.076-3.715a2.138,2.138,0,0,1,1.986.961h.032v-4.068h1.57v8.328c0,.673.032,1.313.064,1.89Zm-.224-4.1a1.689,1.689,0,0,0-1.634-1.826c-1.153,0-1.858,1.025-1.858,2.466,0,1.409.737,2.37,1.826,2.37a1.742,1.742,0,0,0,1.666-1.858Zm11.437,4.26a3.325,3.325,0,0,1-3.364-3.587,3.4,3.4,0,0,1,3.492-3.683,3.292,3.292,0,0,1,3.364,3.587A3.434,3.434,0,0,1,864.275,131.611Zm.064-6.15c-1.121,0-1.826,1.057-1.826,2.53,0,1.441.737,2.5,1.826,2.5s1.826-1.121,1.826-2.53C866.133,126.518,865.429,125.461,864.339,125.461Zm11.79,5.989h-1.57v-4c0-1.249-.481-1.858-1.41-1.858a1.6,1.6,0,0,0-1.538,1.7v4.164h-1.57v-5c0-.609,0-1.281-.064-1.986h1.378l.064,1.089h.032a2.544,2.544,0,0,1,2.211-1.217c1.474,0,2.435,1.121,2.435,2.947v4.164Zm10.444-5.829h-1.7v3.4c0,.865.288,1.281.9,1.281a4.083,4.083,0,0,0,.7-.064l.032,1.185a3.2,3.2,0,0,1-1.217.16c-1.217,0-1.954-.673-1.954-2.434v-3.523h-1.025v-1.153h1.025v-1.281l1.538-.448v1.73h1.7Zm8.234,5.829h-1.538v-3.972c0-1.249-.481-1.89-1.41-1.89a1.539,1.539,0,0,0-1.57,1.666v4.228h-1.538V121.233h1.538v4.2h.032a2.34,2.34,0,0,1,2.114-1.153c1.474,0,2.371,1.153,2.371,2.979Zm8.426-3.107h-4.677a2.019,2.019,0,0,0,2.211,2.082,5.842,5.842,0,0,0,1.89-.32l.256,1.089a5.866,5.866,0,0,1-2.339.416,3.256,3.256,0,0,1-3.492-3.523c0-2.146,1.313-3.747,3.3-3.747,1.794,0,2.915,1.313,2.915,3.331A2.634,2.634,0,0,1,903.233,128.344Zm-1.41-1.121c0-1.089-.545-1.858-1.538-1.858a1.834,1.834,0,0,0-1.7,1.858Z" transform="translate(-722.659 -109.737)"/></g></svg>