<svg xmlns="http://www.w3.org/2000/svg" xmlns:xlink="http://www.w3.org/1999/xlink" width="15" height="15" viewBox="0 0 15 15"><defs><style>.a,.c{fill:#95979b;}.a{stroke:#707070;}.b{clip-path:url(#a);}</style><clipPath id="a"><rect class="a" width="15" height="15" transform="translate(4 845)"/></clipPath></defs><g class="b" transform="translate(-4 -845)"><g transform="translate(5.365 845)"><g transform="translate(0)"><path class="c" d="M13.9,8.517l-.066-1.182-.722.938a1.982,1.982,0,0,1-.336.327,4.676,4.676,0,0,0,.153-.695,4.929,4.929,0,0,0-1.042-3.712l-.457-.61-.3.7c-.345.809-.9,1.214-1.424,1.034a1.674,1.674,0,0,1-.892-1.256A6.66,6.66,0,0,1,9.021.705L9.213,0,8.5.161A6.142,6.142,0,0,0,3.812,5.1a11.963,11.963,0,0,0-.323,2.927,4.8,4.8,0,0,1-.86-.873l-.541-.8-.247.931A6.139,6.139,0,0,0,7.7,15h.151a6.142,6.142,0,0,0,6.06-6.134C13.908,8.752,13.9,8.635,13.9,8.517Zm-6.125,5.6a2.06,2.06,0,0,1-2.058-2.058A3.372,3.372,0,0,1,7.381,8.8a2.326,2.326,0,0,0,.144,1.334,1.439,1.439,0,0,0,1.1.926,1.131,1.131,0,0,0,.8-.226A2.058,2.058,0,0,1,7.773,14.12Zm2.6-.689a2.936,2.936,0,0,0-.636-3.556l-.361-.324-.287.39c-.073.1-.217.264-.361.248-.114-.013-.28-.143-.394-.4a1.469,1.469,0,0,1,.194-1.453l.609-.825-1.017.127a3.815,3.815,0,0,0-1.658.72,4.483,4.483,0,0,0-1.624,3.707,2.919,2.919,0,0,0,.339,1.37A5.259,5.259,0,0,1,2.517,8.865q0-.25.023-.5a6.837,6.837,0,0,0,1.211.912l.764.453-.1-.883a11.261,11.261,0,0,1,.259-3.56A5.33,5.33,0,0,1,7.994,1.223a7.013,7.013,0,0,0-.033,3.057A2.507,2.507,0,0,0,9.417,6.15a1.677,1.677,0,0,0,1.444-.173,2.435,2.435,0,0,0,.7-.671,3.869,3.869,0,0,1,.5,2.439,3.515,3.515,0,0,1-.431,1.309l-.376.577.682.1a1.672,1.672,0,0,0,1.052-.219A5.267,5.267,0,0,1,10.371,13.432Z" transform="translate(-1.637)"/></g></g></g></svg>