<svg xmlns="http://www.w3.org/2000/svg" xmlns:xlink="http://www.w3.org/1999/xlink" width="260" height="260" viewBox="0 0 260 260"><defs><style>.a{fill:#2e4765;}.b{fill:#fff;}.c{clip-path:url(#c);}.d{filter:url(#a);}</style><filter id="a" x="0" y="0" width="260" height="260" filterUnits="userSpaceOnUse"><feOffset dy="10" input="SourceAlpha"/><feGaussianBlur stdDeviation="15" result="b"/><feFlood flood-color="#7e7ef4" flood-opacity="0.38"/><feComposite operator="in" in2="b"/><feComposite in="SourceGraphic"/></filter><clipPath id="c"><rect class="a" width="90" height="90" transform="translate(1430 3861)"/></clipPath></defs><g transform="translate(-1345 -3777)"><g class="d" transform="matrix(1, 0, 0, 1, 1345, 3777)"><circle class="b" cx="85" cy="85" r="85" transform="translate(45 35)"/></g><g class="c" transform="translate(0 -9)"><g transform="translate(1430 3861.001)"><path class="a" d="M21.431,47.145h4.29v4.29h4.287v4.287H8.576V51.435h4.287V42.858H21.44v4.287h-.009ZM77.149,85.713H81.43V81.427H77.149ZM25.717,47.145H30V42.858H25.717ZM85.71,85.713H90V81.427H85.71ZM34.294,90h8.567V85.71H34.294Zm38.565,0V85.71h-4.29V90ZM55.718,90h4.287V81.424H55.718ZM21.431,34.288v4.287H34.288V34.288ZM17.15,38.571V34.285H8.573v8.573H12.86V38.571ZM30,30h-30V0H30ZM25.717,4.29H4.287V25.714H25.717ZM8.573,81.427H21.428V68.569H8.573Zm42.855-4.29v4.29h4.293v-4.29Zm-30-68.56H8.576V21.428H21.431V8.576ZM90,0V30H60V0ZM85.71,4.29H64.286V25.714H85.71V4.29ZM0,59.993H30v30H0Zm4.29,25.72H25.72V64.283H4.29Zm0-51.426H0V55.718H4.29ZM60,55.712v4.281h4.287V55.712ZM47.142,72.856V68.569H42.858v4.29H34.291v8.576h8.567v4.287h4.284V77.146h4.29V72.859h-4.29ZM34.294,17.147h8.567V12.854H34.294ZM68.572,51.432h8.579v4.287h4.284V42.864H77.152V34.288H72.859V47.145H60.011v4.29H64.3v4.287h4.287V51.435h-.012Zm4.287,12.851h-4.29v-4.29H64.283v8.576H51.429v4.29h8.579v8.576h4.287v4.287h4.287V77.146H85.719V72.859H72.865V64.283Zm0,0h4.293v-8.57H72.859Zm-34.285,0v-4.29h4.281V55.712h4.284V51.426h4.29V42.849H64.283V34.273H60v4.287H55.709V21.419H51.423V12.842h4.287V0H51.423V8.573H47.136V0H34.282V8.573h4.287V4.287h4.281v8.567h4.287V25.711h4.287V30H47.136v8.573H42.849V30H38.568V25.714H34.282v8.573h4.287v4.287H34.282v12.86h4.287V42.858h4.281v8.576H38.568v4.287H34.282V68.569h8.567V64.283ZM85.71,68.569V64.283H77.143v4.287ZM81.424,8.576H68.572V21.428H81.424ZM47.142,64.283h8.579v-4.29H51.429V55.712h-4.29v8.57Zm8.576-8.57V51.426H51.426v4.287ZM81.424,38.571H90V34.285H81.424ZM85.71,72.856H90V68.569H85.71Zm0-25.711H90V42.858H85.71ZM47.142,25.714H42.858V30h4.284Z"/></g></g></g></svg>